<svg xmlns="http://www.w3.org/2000/svg" width="50" height="50" viewBox="0 0 50 50" fill="none"><g clip-path="url(#clip0_1_605)"><path d="M41.3331 34.475V26.9602C41.3331 18.5595 35.4548 11.7494 28.2036 11.7494C20.9525 11.7494 15.0742 18.5595 15.0742 26.9602V34.475L13.6776 37.0741C13.4638 37.4719 13.3519 37.9166 13.3519 38.3682C13.3519 39.8783 14.5763 41.1026 16.0865 41.1026H40.3207C41.831 41.1026 43.0553 39.8783 43.0553 38.3682C43.0553 37.9165 42.9435 37.4719 42.7297 37.0741L41.3331 34.475Z" fill="#FFE082"></path><path d="M15.2751 38.3682C15.2751 37.9165 15.387 37.4719 15.6008 37.0741L16.9974 34.475V26.9602C16.9974 18.9342 22.3631 12.3607 29.1653 11.7902C28.8478 11.7636 28.5272 11.7494 28.2038 11.7494C20.9526 11.7494 15.0743 18.5595 15.0743 26.9602V34.475L13.6777 37.0741C13.4639 37.4719 13.3521 37.9166 13.3521 38.3682C13.3521 39.8783 14.5764 41.1026 16.0867 41.1026H18.0097C16.4994 41.1025 15.2751 39.8783 15.2751 38.3682Z" fill="#FFB966"></path><path d="M31.1497 10.8783L35.5923 3.30204C35.7614 3.01358 35.4313 2.69136 35.147 2.86743L34.9191 3.00856C32.9281 4.24179 30.3551 3.97362 28.6613 2.35621C26.5885 0.376935 23.4289 0.0771487 21.0209 1.63132C20.54 1.94168 20.3892 2.57565 20.6786 3.06935L25.2577 10.8782H31.1497V10.8783Z" fill="#FFE082"></path><path d="M21.0209 1.63143C20.54 1.94179 20.3892 2.57577 20.6786 3.06946L25.2577 10.8783H27.3944L21.7385 1.23303C21.4935 1.34884 21.2536 1.48122 21.0209 1.63143Z" fill="#FFB966"></path><path d="M33.301 12.9288H23.3639C22.3313 12.9288 21.4943 12.0918 21.4943 11.0592C21.4943 10.0266 22.3313 9.18951 23.3639 9.18951H33.301C34.3336 9.18951 35.1707 10.0266 35.1707 11.0592C35.1707 12.0918 34.3336 12.9288 33.301 12.9288Z" fill="white"></path><path d="M33.301 12.9288H23.3639C22.3313 12.9288 21.4943 12.0918 21.4943 11.0592C21.4943 10.0266 22.3313 9.18951 23.3639 9.18951H33.301C34.3336 9.18951 35.1707 10.0266 35.1707 11.0592C35.1707 12.0918 34.3336 12.9288 33.301 12.9288Z" fill="#94D394"></path><path d="M23.4173 11.0592C23.4173 10.0266 24.2544 9.18951 25.287 9.18951H23.3639C22.3313 9.18951 21.4943 10.0266 21.4943 11.0592C21.4943 12.0918 22.3313 12.9288 23.3639 12.9288H25.287C24.2544 12.9288 23.4173 12.0918 23.4173 11.0592Z" fill="#6BB26B"></path><path d="M28.2037 37.644C32.8651 37.644 36.6439 33.8652 36.6439 29.2038C36.6439 24.5424 32.8651 20.7636 28.2037 20.7636C23.5423 20.7636 19.7635 24.5424 19.7635 29.2038C19.7635 33.8652 23.5423 37.644 28.2037 37.644Z" fill="#94D394"></path><path d="M21.7935 29.2038C21.7935 24.8862 25.0362 21.3281 29.2187 20.8265C28.8857 20.7866 28.5475 20.7636 28.2037 20.7636C23.5423 20.7636 19.7635 24.5425 19.7635 29.2038C19.7635 33.8651 23.5424 37.644 28.2037 37.644C28.5475 37.644 28.8857 37.621 29.2187 37.581C25.0362 37.0794 21.7935 33.5214 21.7935 29.2038Z" fill="#6BB26B"></path><path d="M20.055 36.9546L26.1945 37.8197C27.773 38.0421 29.2327 36.9422 29.4539 35.3638C29.675 33.787 28.5765 32.3293 26.9998 32.1071L21.4733 31.3281C12.0637 26.2879 8.19165 35.4536 8.19165 35.4536L10.8531 45.3694L26.4897 47.2879C27.2794 47.3848 28.0803 47.2593 28.8024 46.9258L47.6222 38.233C49.0436 37.5765 49.7177 35.9348 49.1679 34.4689C48.6006 32.9566 46.9346 32.1682 45.4053 32.6885L31.5256 37.4099C29.9421 37.9485 28.2538 38.1078 26.5969 37.8748L20.055 36.9546Z" fill="#FFDAD2"></path><path d="M47.6222 36.3098L28.8024 45.0025C28.0802 45.3361 27.2793 45.4615 26.4897 45.3646L10.2828 43.2445L10.8531 45.3692L26.4897 47.2877C27.2794 47.3846 28.0803 47.2591 28.8024 46.9256L47.6222 38.2328C49.015 37.5895 49.6895 36.0002 49.1987 34.5573C48.9435 35.3076 48.393 35.9537 47.6222 36.3098Z" fill="#FFC2B8"></path><path d="M10.2556 48.0935L5.68866 49.3152C5.005 49.4981 4.30244 49.0925 4.119 48.409L0.685133 35.6153C0.501479 34.931 0.907675 34.2276 1.59208 34.0445L6.15906 32.8228C6.84272 32.6399 7.54528 33.0456 7.72872 33.729L11.1626 46.5227C11.3464 47.2069 10.9402 47.9104 10.2556 48.0935Z" fill="#FF92C4"></path><path d="M11.1627 46.5227L11.0138 45.9677L3.96954 47.8519L4.11901 48.409C4.30245 49.0924 5.00501 49.4981 5.68867 49.3152L10.2557 48.0935C10.9402 47.9104 11.3464 47.2069 11.1627 46.5227Z" fill="#FF66B3"></path><path d="M7.05799 45.9373C6.77508 45.9373 6.51611 45.7485 6.43929 45.4623L5.8317 43.1986C5.73993 42.8567 5.94271 42.5051 6.2847 42.4134C6.62626 42.3216 6.97818 42.5244 7.06995 42.8664L7.67754 45.13C7.78587 45.5335 7.47017 45.9373 7.05799 45.9373Z" fill="#333333"></path><path d="M12.0727 23.5043C15.849 23.5043 18.9103 20.443 18.9103 16.6666C18.9103 12.8903 15.849 9.82904 12.0727 9.82904C8.29635 9.82904 5.23505 12.8903 5.23505 16.6666C5.23505 20.443 8.29635 23.5043 12.0727 23.5043Z" fill="#B2EBF2"></path><path d="M7.15812 16.6666C7.15812 13.2169 9.71336 10.3653 13.0342 9.89774C12.7199 9.85351 12.3991 9.82904 12.0727 9.82904C8.29637 9.82904 5.23505 12.8904 5.23505 16.6666C5.23505 20.4429 8.29637 23.5043 12.0727 23.5043C12.3991 23.5043 12.7199 23.4799 13.0342 23.4356C9.71336 22.968 7.15812 20.1164 7.15812 16.6666Z" fill="#80DEEA"></path><path d="M12.5351 16.0386V14.056C12.9417 14.1359 13.3289 14.3121 13.6609 14.5694C14.1671 14.9219 14.7628 14.1711 14.3404 13.7378C13.8345 13.2982 13.193 13.0306 12.5293 12.9808V12.3312C12.5293 12.1024 12.3458 11.9163 12.1276 11.9163C12.1272 11.9163 12.1269 11.9163 12.1266 11.9163C12.1201 11.9153 12.1138 11.9138 12.1076 11.9152C11.9976 11.9152 11.8912 11.9559 11.8115 12.0344C11.7319 12.1128 11.6872 12.2179 11.6856 12.3312V12.9578C10.382 13.0711 9.47617 13.915 9.47617 15.0237C9.47617 16.3492 10.5164 16.7578 11.6856 17.0809V19.3505C11.146 19.2657 10.6422 19.0337 10.2238 18.6769C9.71527 18.2663 9.07873 19.0433 9.51687 19.4936C10.1164 20.0413 10.8869 20.3624 11.6913 20.4009V21.0019C11.7021 21.5405 12.5349 21.5411 12.5349 21.0019V20.3875C14.1842 20.2565 14.7736 19.1768 14.7736 18.2026C14.7737 16.7893 13.6257 16.3408 12.5351 16.0386ZM13.597 18.3331C13.597 18.7573 13.3167 19.2444 12.5351 19.3629V17.337C13.1791 17.5302 13.6021 17.7802 13.597 18.3331ZM11.6916 14.009V15.8176C11.1048 15.6393 10.6647 15.4515 10.6647 14.9525C10.6647 14.4431 11.0657 14.0773 11.6916 14.009Z" fill="#333333"></path><path d="M44.3376 13.141C46.5208 13.141 48.2906 11.3712 48.2906 9.18804C48.2906 7.00486 46.5208 5.23505 44.3376 5.23505C42.1545 5.23505 40.3846 7.00486 40.3846 9.18804C40.3846 11.3712 42.1545 13.141 44.3376 13.141Z" fill="white"></path><path d="M42.4146 9.18804C42.4146 7.35577 43.6614 5.81528 45.3526 5.3672C45.0287 5.28131 44.6886 5.23505 44.3376 5.23505C42.1544 5.23505 40.3846 7.00481 40.3846 9.18804C40.3846 11.3713 42.1544 13.141 44.3376 13.141C44.6886 13.141 45.0287 13.0948 45.3526 13.0089C43.6614 12.5608 42.4146 11.0203 42.4146 9.18804Z" fill="#FFE6F3"></path><path d="M44.3376 13.782C41.8045 13.782 39.7436 11.7211 39.7436 9.18801C39.7436 6.65489 41.8045 4.59399 44.3376 4.59399C46.8707 4.59399 48.9316 6.65489 48.9316 9.18801C48.9316 11.7211 46.8707 13.782 44.3376 13.782ZM44.3376 5.87605C42.5114 5.87605 41.0256 7.36184 41.0256 9.18801C41.0256 11.0142 42.5114 12.5 44.3376 12.5C46.1638 12.5 47.6496 11.0142 47.6496 9.18801C47.6496 7.36184 46.1638 5.87605 44.3376 5.87605Z" fill="#333333"></path><path d="M49.7708 34.2467C49.0774 32.3985 47.0704 31.4486 45.2011 32.0847L41.9743 33.1822C41.9743 33.1822 41.9676 26.4777 41.9579 26.2382C41.9595 26.2148 41.9601 26.1911 41.959 26.167C41.7376 21.0195 39.2559 15.8589 34.8206 13.0616C35.4231 12.6026 35.813 11.878 35.813 11.064C35.813 9.67974 34.6866 8.55356 33.3021 8.55356H33.2601L36.1466 3.63177C36.6324 2.80378 35.6456 1.81115 34.8107 2.32792C33.0369 3.50495 30.6677 3.39031 29.1046 1.89811C26.8081 -0.294408 23.3412 -0.62304 20.6732 1.09822C19.9014 1.59619 19.6609 2.60687 20.1255 3.39897L23.1541 8.56296C21.8675 8.67002 20.8531 9.75046 20.8531 11.064C20.8531 11.8266 21.1954 12.5104 21.7339 12.9712C20.8756 13.4969 20.0712 14.1257 19.3259 14.8504C18.5105 11.6041 15.568 9.19299 12.0718 9.19299C7.94768 9.19299 4.59255 12.5477 4.59255 16.6711C4.59255 20.7945 7.94778 24.1492 12.0718 24.1492C13.0101 24.1492 13.9077 23.9739 14.736 23.6571C14.387 25.5431 14.4326 27.4421 14.4326 29.3493C11.8857 29.876 9.79308 31.6161 8.39853 33.7586C8.16071 32.6726 7.10868 31.9084 5.99223 32.2068L1.42481 33.4285C0.415625 33.6983 -0.208627 34.7682 0.0642359 35.7844L3.49832 48.5773C3.76936 49.587 4.84073 50.2072 5.85302 49.9365L10.4204 48.7149C11.5523 48.412 12.0724 47.1853 11.7172 46.121L26.4122 47.926C27.313 48.0364 28.2481 47.8901 29.072 47.5095L47.8935 38.8174C49.6103 38.0247 50.4349 36.0169 49.7708 34.2467ZM21.2317 2.75046C21.1155 2.55249 21.1757 2.29982 21.3686 2.17536C23.5362 0.776746 26.3534 1.04384 28.2194 2.82536C29.9052 4.43476 32.3657 4.85645 34.4615 3.97087L31.7737 8.55346H24.635L21.2317 2.75046ZM23.364 9.83551H33.3021C33.9796 9.83551 34.5308 10.3866 34.5308 11.064C34.5308 11.7415 33.9796 12.2926 33.3021 12.2926H23.364C22.6865 12.2926 22.1353 11.7415 22.1353 11.064C22.1353 10.3866 22.6866 9.83551 23.364 9.83551ZM19.5461 16.4703C20.6404 15.2408 21.896 14.2675 23.2835 13.5725C23.3103 13.5733 23.3371 13.5745 23.3641 13.5745H25.9904C24.8465 15.2642 23.298 16.165 22.3951 16.5749C21.6618 16.9078 22.1687 18.0857 22.9251 17.7422C24.0808 17.2176 26.1608 15.9921 27.4942 13.5746H30.0453C30.6666 15.1412 30.96 16.8338 30.9072 18.5181C30.8961 18.8719 31.1741 19.1678 31.5279 19.1788C31.5348 19.179 31.5415 19.1791 31.5483 19.1791C31.8931 19.1791 32.1779 18.9052 32.1887 18.5582C32.2416 16.8686 31.981 15.1676 31.414 13.5746H33.1279C37.4275 15.731 40.3644 20.581 40.6658 26.0155H40.6652C40.6824 26.328 40.6921 33.6183 40.6921 33.6183L34.5272 35.7152C36.2271 34.0646 37.2864 31.7582 37.2864 29.2072C37.2864 24.2001 33.2122 20.1266 28.2043 20.1266C23.1047 20.1266 18.8675 24.5437 19.1346 29.6486C17.9526 29.287 16.8109 29.1329 15.7148 29.1868C15.7148 27.065 15.694 24.9741 16.2121 22.895C18.3357 21.4782 19.614 19.0219 19.5461 16.4703ZM29.9466 33.8665C31.2087 33.3996 31.7404 32.3539 31.7404 31.2583C31.7404 29.3894 30.1948 28.8192 28.7506 28.4232V25.6357C29.3384 25.7363 29.8927 25.981 30.3665 26.3484C30.6312 26.5326 30.9947 26.4517 31.1963 26.2135C31.4045 25.9675 31.4165 25.5875 31.1861 25.3506C30.5015 24.7558 29.6428 24.4051 28.7428 24.3528V23.4183C28.7428 23.1514 28.5296 22.9352 28.2666 22.9352C28.2611 22.9344 28.2557 22.9344 28.2501 22.9344C27.9831 22.9305 27.7631 23.1467 27.7591 23.4183V24.3211C26.0026 24.4478 24.8083 25.5485 24.8083 27.0136C24.8083 28.8113 26.3149 29.3102 27.7591 29.7061V31.638C27.5455 31.5635 27.322 31.5083 27.0898 31.4756L21.6745 30.7124C21.2659 30.497 20.8616 30.3051 20.4611 30.1349C19.9125 25.5665 23.6031 21.4088 28.2043 21.4088C32.5052 21.4088 36.0042 24.9072 36.0042 29.2074C36.0042 33.0462 33.2152 36.2439 29.557 36.886C30.1297 36.0043 30.2765 34.8646 29.9466 33.8665ZM29.3353 32.7488C29.1637 32.5368 28.9675 32.3448 28.7505 32.1767V30.007C29.6326 30.2604 30.3196 30.6009 30.3118 31.4324C30.3118 31.9186 30.0463 32.4769 29.3353 32.7488ZM27.7669 25.5803V28.1698C26.9159 27.9164 26.2525 27.6551 26.2525 26.9186C26.2525 26.1821 26.8536 25.6515 27.7669 25.5803ZM12.0718 22.8672C8.65473 22.8672 5.87471 20.0876 5.87471 16.6711C5.87471 13.2545 8.65473 10.4749 12.0718 10.4749C15.4889 10.4749 18.2689 13.2545 18.2689 16.6711C18.2689 20.0876 15.489 22.8672 12.0718 22.8672ZM10.4787 47.1777C10.393 47.3261 10.2546 47.4322 10.0891 47.4764L5.52171 48.698C5.18058 48.7893 4.82834 48.586 4.73678 48.245L1.3027 35.4523C1.21092 35.1104 1.43154 34.7538 1.75622 34.6669L6.32364 33.4453C6.65879 33.3555 7.01787 33.5605 7.10857 33.8983L10.5428 46.6911C10.5871 46.8566 10.5643 47.0293 10.4787 47.1777ZM47.3558 37.6538L28.5344 46.3459C27.9199 46.6297 27.2401 46.7361 26.5683 46.6537L11.3602 44.7856L8.87043 35.5166C11.314 30.5614 16.4418 29.3637 21.1706 31.8964C21.2371 31.932 21.3092 31.9556 21.3839 31.9661L26.9109 32.745C28.1352 32.9176 28.9916 34.0539 28.8199 35.2779C28.6513 36.4796 27.5162 37.345 26.313 37.1905L20.1444 36.3229C19.7933 36.273 19.4695 36.5178 19.4202 36.8683C19.3709 37.2188 19.6151 37.543 19.9657 37.5923L26.5083 38.5125C28.2562 38.7583 30.063 38.5879 31.7331 38.0197L45.6141 33.2983C46.8235 32.8872 48.1218 33.5015 48.5703 34.697C48.9998 35.842 48.4664 37.1408 47.3558 37.6538Z" fill="#333333"></path></g><defs><clipPath id="clip0_1_605"><rect width="50" height="50" fill="white"></rect></clipPath></defs></svg>