<svg xmlns="http://www.w3.org/2000/svg" width="50" height="50" viewBox="0 0 50 50" fill="none"><g clip-path="url(#clip0_1_575)"><path d="M25.4427 25.2131C25.1918 25.4031 25.1341 25.7565 25.3115 26.0164C27.9099 30.0574 27.7378 35.0164 27.2951 37.8361C27.2591 38.0872 27.3843 38.334 27.6082 38.4533C27.8321 38.5726 28.1068 38.5388 28.2951 38.3689C29.7572 37.01 31.4082 35.8697 33.1968 34.9836V41.8033C33.1968 43.1614 32.0958 44.2623 30.7378 44.2623H3.68857C2.33049 44.2623 1.22955 43.1614 1.22955 41.8033V4.09836C1.22955 2.74028 2.33049 1.63934 3.68857 1.63934H30.7378C32.0958 1.63934 33.1968 2.74028 33.1968 4.09836V17.4262C31.0738 20.7459 26.8443 24.1721 25.4427 25.2131Z" fill="#F5F5F5"></path><path d="M30.7377 41.8033C30.7377 43.1613 29.6368 44.2623 28.2787 44.2623H30.7377C32.0958 44.2623 33.1967 43.1613 33.1967 41.8033V34.9836C32.3427 35.4024 31.5208 35.8838 30.7377 36.4237V41.8033Z" fill="#CFD8DC"></path><path d="M30.7377 1.63934H28.2787C29.6368 1.63934 30.7377 2.74028 30.7377 4.09836V17.4262C28.6148 20.7459 24.3853 24.1721 22.9836 25.2131C22.7328 25.4031 22.6751 25.7565 22.8525 26.0164C25.4509 30.0574 25.2787 35.0164 24.8361 37.8361C24.8001 38.0872 24.9253 38.334 25.1492 38.4533C25.3731 38.5726 25.6478 38.5388 25.8361 38.3689C26.2754 37.959 26.8017 37.5123 27.4009 37.0574C27.7451 34.1648 27.6861 29.7107 25.3115 26.018C25.1341 25.7581 25.1918 25.4047 25.4427 25.2148C26.8443 24.1738 31.0738 20.7475 33.1968 17.4279V4.09836C33.1968 2.74028 32.0958 1.63934 30.7377 1.63934Z" fill="#CFD8DC"></path><path d="M48.7705 9.19672L42.3607 21.2295L40.4427 20.2131L33.6804 16.6066L41.6558 1.63934L47.1968 7.52459L48.7705 9.19672Z" fill="#3F51B5"></path><path d="M48.7705 9.19673L42.3607 21.2295L40.4426 20.2131L47.1967 7.5246L48.7705 9.19673Z" fill="#283593"></path><path d="M42.3607 21.2295C40.4672 24.7869 39.9016 30.9836 39.8115 32.8689C39.7919 33.1842 39.529 33.429 39.2131 33.4262C38.8443 33.4344 38.4754 33.459 38.1148 33.5C36.4011 33.7022 34.7363 34.2044 33.1967 34.9836C31.4082 35.8698 29.7572 37.01 28.2951 38.3689C28.1067 38.5388 27.8321 38.5726 27.6082 38.4533C27.3842 38.334 27.2591 38.0872 27.2951 37.8361C27.7377 35.0164 27.9098 30.0574 25.3115 26.0164C25.134 25.7565 25.1917 25.4031 25.4426 25.2131C26.8443 24.1721 31.0738 20.7459 33.1967 17.4262C33.3771 17.1476 33.5328 16.8771 33.6803 16.6066L42.3607 21.2295Z" fill="#FFDC00"></path><path d="M33.1967 30.3279C34.5548 30.3279 35.6558 29.2269 35.6558 27.8689C35.6558 26.5108 34.5548 25.4099 33.1967 25.4099C31.8387 25.4099 30.7377 26.5108 30.7377 27.8689C30.7377 29.2269 31.8387 30.3279 33.1967 30.3279Z" fill="#607D8B"></path><path d="M38.1147 33.5V46.7213C38.1147 48.0794 37.0138 49.1803 35.6557 49.1803H8.60655C7.95284 49.1854 7.32443 48.928 6.86217 48.4657C6.39991 48.0034 6.14246 47.375 6.14753 46.7213V44.2623H30.7377C32.0958 44.2623 33.1967 43.1614 33.1967 41.8033V34.9836C34.7363 34.2044 36.4011 33.7022 38.1147 33.5Z" fill="#9E9E9E"></path><path d="M3.68854 45.0819H5.32788V46.7114C5.31492 47.5765 5.65153 48.4102 6.26149 49.0237C6.87972 49.6518 7.72527 50.0038 8.60657 50H35.6558C37.4665 50 38.9344 48.532 38.9344 46.7213V36.8852C38.9344 36.4325 38.5675 36.0655 38.1148 36.0655C37.6621 36.0655 37.2951 36.4325 37.2951 36.8852V46.7213C37.2951 47.6267 36.5611 48.3606 35.6558 48.3606H8.60657C8.16335 48.3628 7.73814 48.1853 7.42788 47.8688C7.12548 47.5643 6.9593 47.1503 6.96723 46.7213V45.0819H30.7377C32.5485 45.0819 34.0164 43.614 34.0164 41.8032V38.7377C34.0164 38.285 33.6494 37.918 33.1967 37.918C32.744 37.918 32.3771 38.285 32.3771 38.7377V41.8032C32.3771 42.7086 31.6431 43.4426 30.7377 43.4426H3.68854C2.78315 43.4426 2.0492 42.7086 2.0492 41.8032V4.09833C2.0492 3.19294 2.78315 2.45899 3.68854 2.45899H30.7377C31.6431 2.45899 32.3771 3.19294 32.3771 4.09833V10.6557C32.3771 11.1084 32.744 11.4754 33.1967 11.4754C33.6494 11.4754 34.0164 11.1084 34.0164 10.6557V4.09833C34.0164 2.28756 32.5485 0.819641 30.7377 0.819641H3.68854C1.87777 0.819641 0.409851 2.28756 0.409851 4.09833V41.8032C0.409851 43.614 1.87777 45.0819 3.68854 45.0819Z" fill="black"></path><path d="M4.50821 5.73767C4.05552 5.73767 3.68854 6.10465 3.68854 6.55734V13.9344C3.68854 14.3871 4.05552 14.7541 4.50821 14.7541H7.7869C8.23959 14.7541 8.60657 14.3871 8.60657 13.9344C8.60657 13.4817 8.23959 13.1147 7.7869 13.1147H5.32788V6.55734C5.32788 6.10465 4.9609 5.73767 4.50821 5.73767Z" fill="black"></path><path d="M15.9836 10.2459C15.9836 7.718 14.5435 5.73767 12.705 5.73767C10.8664 5.73767 9.42627 7.718 9.42627 10.2459C9.42627 12.7737 10.8664 14.7541 12.705 14.7541C14.5435 14.7541 15.9836 12.7737 15.9836 10.2459ZM11.0656 10.2459C11.0656 8.5557 11.9295 7.37702 12.705 7.37702C13.4804 7.37702 14.3443 8.5557 14.3443 10.2459C14.3443 11.936 13.4804 13.1147 12.705 13.1147C11.9295 13.1147 11.0656 11.9369 11.0656 10.2459Z" fill="black"></path><path d="M20.8598 6.29835C20.7493 5.96198 20.4352 5.73462 20.0811 5.73462C19.7271 5.73462 19.413 5.96198 19.3025 6.29835L16.8434 13.6754C16.7004 14.1055 16.9331 14.5701 17.3631 14.7131C17.7932 14.8562 18.2578 14.6235 18.4008 14.1934L18.7607 13.1147H21.4033L21.7631 14.1934C21.8557 14.4716 22.0896 14.6793 22.3768 14.7383C22.664 14.7972 22.9608 14.6985 23.1555 14.4793C23.3501 14.26 23.413 13.9536 23.3205 13.6754L20.8598 6.29835ZM19.3066 11.4754L20.082 9.14917L20.8574 11.4754H19.3066Z" fill="black"></path><path d="M26.6393 13.9344V9.72047L29.2016 14.3328C29.3463 14.5928 29.6205 14.7541 29.918 14.7541C29.9875 14.7542 30.0566 14.7454 30.1238 14.7279C30.4853 14.6341 30.7377 14.3079 30.7377 13.9344V6.55736C30.7377 6.10467 30.3707 5.73769 29.918 5.73769C29.4653 5.73769 29.0984 6.10467 29.0984 6.55736V10.7713L26.5361 6.159C26.3546 5.83259 25.9754 5.67012 25.6139 5.76387C25.2524 5.85762 25 6.18389 25 6.55736V13.9344C25 14.3871 25.367 14.7541 25.8197 14.7541C26.2724 14.7541 26.6393 14.3871 26.6393 13.9344Z" fill="black"></path><path d="M4.50821 20.4918H15.1639C15.6166 20.4918 15.9836 20.1248 15.9836 19.6722C15.9836 19.2195 15.6166 18.8525 15.1639 18.8525H4.50821C4.05552 18.8525 3.68854 19.2195 3.68854 19.6722C3.68854 20.1248 4.05552 20.4918 4.50821 20.4918Z" fill="black"></path><path d="M4.50821 24.5901H15.1639C15.6166 24.5901 15.9836 24.2232 15.9836 23.7705C15.9836 23.3178 15.6166 22.9508 15.1639 22.9508H4.50821C4.05552 22.9508 3.68854 23.3178 3.68854 23.7705C3.68854 24.2232 4.05552 24.5901 4.50821 24.5901Z" fill="black"></path><path d="M4.50821 28.6885H15.1639C15.6166 28.6885 15.9836 28.3216 15.9836 27.8689C15.9836 27.4162 15.6166 27.0492 15.1639 27.0492H4.50821C4.05552 27.0492 3.68854 27.4162 3.68854 27.8689C3.68854 28.3216 4.05552 28.6885 4.50821 28.6885Z" fill="black"></path><path d="M18.4426 19.6722C18.4426 20.1248 18.8096 20.4918 19.2623 20.4918H26.918C27.3707 20.4918 27.7377 20.1248 27.7377 19.6722C27.7377 19.2195 27.3707 18.8525 26.918 18.8525H19.2623C18.8096 18.8525 18.4426 19.2195 18.4426 19.6722Z" fill="black"></path><path d="M19.2623 24.5901H22.4426C22.8953 24.5901 23.2623 24.2232 23.2623 23.7705C23.2623 23.3178 22.8953 22.9508 22.4426 22.9508H19.2623C18.8096 22.9508 18.4426 23.3178 18.4426 23.7705C18.4426 24.2232 18.8096 24.5901 19.2623 24.5901Z" fill="black"></path><path d="M19.2623 28.6885H22.5984C23.0511 28.6885 23.418 28.3216 23.418 27.8689C23.418 27.4162 23.0511 27.0492 22.5984 27.0492H19.2623C18.8096 27.0492 18.4426 27.4162 18.4426 27.8689C18.4426 28.3216 18.8096 28.6885 19.2623 28.6885Z" fill="black"></path><path d="M4.50821 32.7869H15.1639C15.6166 32.7869 15.9836 32.4199 15.9836 31.9672C15.9836 31.5145 15.6166 31.1475 15.1639 31.1475H4.50821C4.05552 31.1475 3.68854 31.5145 3.68854 31.9672C3.68854 32.4199 4.05552 32.7869 4.50821 32.7869Z" fill="black"></path><path d="M24.8934 31.9672C24.8934 31.5145 24.5265 31.1475 24.0738 31.1475H19.2623C18.8096 31.1475 18.4426 31.5145 18.4426 31.9672C18.4426 32.4199 18.8096 32.7869 19.2623 32.7869H24.0738C24.5265 32.7869 24.8934 32.4199 24.8934 31.9672Z" fill="black"></path><path d="M5.32791 39.3442H7.89594C8.64256 39.3467 9.32566 38.9246 9.65742 38.2557C9.71349 38.1284 9.84768 38.0543 9.98529 38.0746C10.1228 38.0821 10.2392 38.1786 10.2722 38.3123L10.4173 38.818C10.6228 39.5593 11.2457 40.1099 12.0066 40.2229C12.1099 40.2392 12.2143 40.2475 12.3189 40.2475C12.9754 40.2487 13.5882 39.9185 13.9484 39.3697L14.8918 37.9549C14.9524 37.8621 15.0557 37.8062 15.1664 37.8062C15.2772 37.8062 15.3805 37.8621 15.441 37.9549L15.782 38.468C16.1473 39.0161 16.7627 39.345 17.4214 39.3442H20.082C20.5347 39.3442 20.9017 38.9773 20.9017 38.5246C20.9017 38.0719 20.5347 37.7049 20.082 37.7049H17.4181C17.308 37.7051 17.2051 37.65 17.1443 37.5582L16.8033 37.0492C16.4388 36.4997 15.8233 36.1694 15.164 36.1694C14.5046 36.1694 13.8891 36.4997 13.5246 37.0492L12.582 38.4606C12.5117 38.5693 12.384 38.6265 12.256 38.6065C12.1281 38.5864 12.024 38.493 11.9902 38.368L11.8459 37.8623C11.6245 37.0802 10.9448 36.5149 10.1355 36.4396C9.32619 36.3642 8.55387 36.7944 8.19185 37.5221C8.13632 37.6347 8.02143 37.7056 7.89594 37.7049H5.32791C4.87522 37.7049 4.50824 38.0719 4.50824 38.5246C4.50824 38.9773 4.87522 39.3442 5.32791 39.3442Z" fill="black"></path><path d="M23.3607 39.3443H27.8836H27.8968C28.2496 39.3437 28.5891 39.2092 28.8468 38.968C30.7131 37.2467 34.5443 34.341 39.2336 34.2451C39.9789 34.242 40.5913 33.6559 40.6271 32.9115C40.6418 32.6098 41.0197 25.4877 43.0861 21.6148L49.4959 9.58196C49.6336 9.32338 49.6228 9.01102 49.4677 8.76254C49.3126 8.51405 49.0367 8.3672 48.7439 8.37729C48.4512 8.38738 48.186 8.55289 48.0484 8.81147L42.0246 20.1229L38.9148 18.4672L34.7918 16.2697L42.3771 2.02459C42.5342 1.76498 42.5351 1.43981 42.3793 1.17938C42.2235 0.918957 41.9366 0.765899 41.6336 0.781552C41.3305 0.797204 41.0609 0.979005 40.9328 1.25409L32.9582 16.218C30.8927 20.0934 25.1918 24.3754 24.95 24.5557C24.3537 25.0016 24.2097 25.8358 24.6222 26.4557C27.2459 30.5475 26.8033 35.6795 26.4894 37.7049H23.3607C22.908 37.7049 22.541 38.0719 22.541 38.5246C22.541 38.9773 22.908 39.3443 23.3607 39.3443ZM26.1041 25.7377C27.0812 24.9893 31.7287 21.3303 33.9918 17.7049L38.7705 20.2459L41.2804 21.5844C39.5304 25.4844 39.082 31.3852 39.0058 32.6148C35.6562 32.8345 32.4472 34.0435 29.7853 36.0885L32.4361 31.0582C34.05 31.46 35.7108 30.5984 36.3116 29.0476C36.9124 27.4967 36.2655 25.7411 34.8021 24.9508C33.3387 24.1605 31.5159 24.5824 30.5486 25.9353C29.5812 27.2883 29.7715 29.1495 30.9927 30.2787L28.3607 35.2639C28.5633 31.9356 27.7782 28.6215 26.1041 25.7377ZM32.4263 29.3156C31.8412 29.0038 31.5015 28.3703 31.5655 27.7104C31.6296 27.0506 32.0848 26.4943 32.7189 26.3008C32.8739 26.254 33.0348 26.2299 33.1968 26.2295C33.879 26.23 34.4896 26.6529 34.7299 27.2915C34.9702 27.93 34.7899 28.6506 34.2772 29.1007C33.7646 29.5509 33.0267 29.6364 32.4246 29.3156H32.4263Z" fill="black"></path></g><defs><clipPath id="clip0_1_575"><rect width="50" height="50" fill="white"></rect></clipPath></defs></svg>