<svg xmlns="http://www.w3.org/2000/svg" width="50" height="32" viewBox="0 0 50 32" fill="none"><g clip-path="url(#clip0_1_552)"><path fill-rule="evenodd" clip-rule="evenodd" d="M22.5806 28.0221L24.1343 26.4684L28.2775 30.6117L32.4207 26.4684L28.2775 22.3252L29.8311 20.7715L20.509 18.7L22.5806 28.0221Z" fill="#C6D2DB"></path><path fill-rule="evenodd" clip-rule="evenodd" d="M29.8312 20.7715L28.2774 22.3252H47.8027C48.6081 22.3252 49.2676 21.6657 49.2676 20.8604V2.5498C49.2676 1.74453 48.6084 1.08496 47.8027 1.08496H2.19727C1.3916 1.08496 0.732422 1.74414 0.732422 2.5498V20.8604C0.732422 21.666 1.39189 22.3252 2.19727 22.3252H21.3146L20.5089 18.7L29.8312 20.7715Z" fill="#FFF5BD"></path><path fill-rule="evenodd" clip-rule="evenodd" d="M4.39453 1.08496H2.19727C1.3916 1.08496 0.732422 1.74414 0.732422 2.5498V20.8604C0.732422 21.666 1.39189 22.3252 2.19727 22.3252H4.39453C3.58916 22.3252 2.92969 21.666 2.92969 20.8604V2.5498C2.92969 1.74424 3.58887 1.08496 4.39453 1.08496Z" fill="#FEE95D"></path><path fill-rule="evenodd" clip-rule="evenodd" d="M22.5806 28.0221L24.1343 26.4684L28.2774 30.6117L29.8311 29.058L24.1343 23.3611L23.8571 23.6381L22.8766 19.2261L20.509 18.7L22.5806 28.0221Z" fill="#A9BACA"></path><path d="M47.0703 4.74707H45.6055V3.28223H47.0703V4.74707ZM44.1406 4.74707H42.6758V3.28223H44.1406V4.74707Z" fill="white"></path><path d="M29.9222 15.2918H31.2866L32.4111 11.2721L33.2311 15.4652L34.6687 15.1842L33.2498 7.9281L31.824 7.93347L30.5851 12.362L29.2777 7.93044H27.8524L26.5448 15.1969L27.9866 15.4564L28.7383 11.2789L29.9222 15.2918Z" fill="black"></path><path d="M36.12 7.93042H37.5848V15.4798H36.12V7.93042Z" fill="black"></path><path d="M22.7359 7.93042H20.236V15.4798H23.0445C24.3514 15.4798 25.4147 14.4133 25.4147 13.1024C25.4147 12.3493 25.0615 11.677 24.5122 11.2425C24.7371 10.9044 24.8683 10.4987 24.8683 10.0628C24.8684 8.88706 23.9117 7.93042 22.7359 7.93042ZM21.7009 9.39526H22.736C23.1041 9.39526 23.4035 9.69477 23.4035 10.0629C23.4035 10.432 23.1041 10.7323 22.736 10.7323H22.0035H21.7009V9.39526ZM23.0446 14.015H21.7009V12.197H23.0446C23.5438 12.197 23.9499 12.6032 23.9499 13.1024C23.9499 13.6056 23.5437 14.015 23.0446 14.015Z" fill="black"></path><path d="M8.978 14.015C8.3655 14.015 7.77566 13.7677 7.40037 13.3536L6.90857 12.811L5.82312 13.7946L6.31501 14.3374C6.96335 15.0528 7.95886 15.4799 8.9781 15.4799C10.2468 15.4799 11.3118 14.6714 11.5107 13.5575C11.6602 12.7204 11.2788 11.6263 9.75994 11.0659C9.00779 10.7885 8.30798 10.4862 8.09812 10.3944C7.91833 10.2524 7.92419 10.053 7.93611 9.97023C7.95232 9.85754 8.03376 9.58205 8.43982 9.45978C9.3071 9.19865 10.1084 9.82658 10.1397 9.85168L10.6972 10.3203L11.6397 9.19904L11.0791 8.72775C11.0221 8.6799 9.66492 7.56086 8.01726 8.05724C7.18787 8.30705 6.60124 8.96037 6.48611 9.76212C6.3782 10.5137 6.70388 11.2367 7.33621 11.6489C7.36863 11.67 7.40251 11.6885 7.43787 11.7043C7.47302 11.72 8.31013 12.0926 9.2529 12.4403C9.52634 12.5412 10.1531 12.8269 10.0686 13.3001C10.0058 13.6515 9.58074 14.015 8.978 14.015Z" fill="black"></path><path d="M13.0785 7.93042V12.8498C13.0785 14.4208 14.5302 15.4781 15.8859 15.4798H15.89C16.6839 15.4798 17.4826 15.1554 18.0271 14.6117C18.5069 14.1326 18.7712 13.5052 18.7712 12.8454V7.93042H17.3063V12.8454C17.3063 13.1214 17.2006 13.3669 16.9921 13.5751C16.7203 13.8466 16.2982 14.015 15.89 14.015C15.8893 14.015 15.8886 14.015 15.8879 14.015C15.2519 14.0141 14.5432 13.5354 14.5432 12.8498V7.93042H13.0785Z" fill="black"></path><path d="M43.8747 9.39526V7.93042H39.0496V9.39526H40.723V15.4798H42.1878V9.39526H43.8747Z" fill="black"></path><path d="M47.8027 0.352661H2.19727C0.985645 0.352661 0 1.33831 0 2.54993V4.74719H1.46484V2.54993C1.46484 2.14612 1.79346 1.8175 2.19727 1.8175H47.8027C48.2065 1.8175 48.5352 2.14612 48.5352 2.54993V20.8605C48.5352 21.2643 48.2065 21.5929 47.8027 21.5929H45.6055V23.0577H47.8027C49.0144 23.0577 50 22.0721 50 20.8605V2.54993C50 1.33831 49.0144 0.352661 47.8027 0.352661Z" fill="black"></path><path d="M42.6758 21.5928H44.1406V23.0576H42.6758V21.5928Z" fill="black"></path><path d="M31.2926 20.3459L19.5443 17.7352L20.4016 21.5927H2.19727C1.79346 21.5927 1.46484 21.2641 1.46484 20.8602V6.21179H0V20.8602C0 22.0718 0.985645 23.0575 2.19727 23.0575H20.7271L22.1551 29.4834L24.1343 27.5041L28.2775 31.6473L33.4565 26.4683L30.0457 23.0575H41.2109V21.5927H30.0457L31.2926 20.3459ZM28.2775 29.5759L24.1343 25.4326L23.0062 26.5607L21.4737 19.6645L28.3699 21.1969L27.2418 22.3251L31.3851 26.4683L28.2775 29.5759Z" fill="black"></path></g><defs><clipPath id="clip0_1_552"><rect width="50" height="32" fill="white"></rect></clipPath></defs></svg>